# AST/ASF file generated using VICON BodyLanguage
# -----------------------------------------------
:version 1.10
:name VICON
:units
  mass 1.0
  length 0.45
  angle deg
:documentation
   .ast/.asf automatically generated from VICON data using
   VICON BodyBuilder and BodyLanguage model FoxedUp or BRILLIANT.MOD
:root
   order TX TY TZ RX RY RZ
   axis XYZ
   position 0 0 0  
   orientation 0 0 0 
:bonedata
  begin
     id 1 
     name lhipjoint
     direction 0.643824 -0.71708 0.266994 
     length 2.52133 
     axis 0 0 0  XYZ
  end
  begin
     id 2 
     name lfemur
     direction 0.34202 -0.939693 0  
     length 7.51824  
     axis 0 0 20  XYZ
    dof rx ry rz
    limits (-160.0 20.0)
           (-70.0 70.0)
           (-60.0 70.0)
  end
  begin
     id 3 
     name ltibia
     direction 0.34202 -0.939693 0   
     length 7.3685   
     axis 0 0 20   XYZ
    dof rx
    limits (-10.0 170.0)
  end
  begin
     id 4 
     name lfoot
     direction 0.105419 -0.289636 0.951314   
     length 2.20972   
     axis -90 7.62852e-016 20   XYZ
    dof rx rz
    limits (-45.0 90.0)
           (-70.0 20.0)
  end
  begin
     id 5 
     name ltoes
     direction 1.53549e-011 -4.21833e-011 1   
     length 1.10139   
     axis -90 7.62852e-016 20   XYZ
    dof rx
    limits (-90.0 20.0)
  end
  begin
     id 6 
     name rhipjoint
     direction -0.608823 -0.743445 0.276811   
     length 2.43192  
     axis 0 0 0  XYZ 
  end
  begin
     id 7 
     name rfemur
     direction -0.34202 -0.939693 0   
     length 7.69715   
     axis 0 0 -20   XYZ
    dof rx ry rz
    limits (-160.0 20.0)
           (-70.0 70.0)
           (-70.0 60.0)
  end
  begin
     id 8 
     name rtibia
     direction -0.34202 -0.939693 0   
     length 7.44924   
     axis 0 0 -20   XYZ
    dof rx
    limits (-10.0 170.0)
 end
 begin
     id 9 
     name rfoot
     direction -0.103614 -0.284677 0.953007   
     length 2.22623  
     axis -90 -7.62852e-016 -20   XYZ
    dof rx rz
    limits (-45.0 90.0)
           (-20.0 70.0)
  end
  begin
     id 10 
     name rtoes
     direction -1.53537e-011 -4.22026e-011 1   
     length 1.11   
     axis -90 -7.62852e-016 -20   XYZ
    dof rx
    limits (-90.0 20.0)
  end
  begin
     id 11 
     name lowerback
     direction -0.0101212 0.99662 -0.0815298   
     length 2.08277   
     axis 0 0 0   XYZ
    dof rx ry rz
    limits (-20.0 45.0)
           (-30.0 30.0)
           (-30.0 30.0)
  end
  begin
     id 12 
     name upperback
     direction 0.024314 0.999591 -0.0150645   
     length 2.08524   
     axis 0 0 0   XYZ
    dof rx ry rz
    limits (-20.0 45.0)
           (-30.0 30.0)
           (-30.0 30.0)
  end
  begin
     id 13 
     name thorax
     direction 0.0285959 0.999323 0.0231357   
     length 2.09645   
     axis 0 0 0   XYZ
    dof rx ry rz
    limits (-20.0 45.0)
           (-30.0 30.0)
           (-30.0 30.0)
  end
  begin
     id 14 
     name lowerneck
     direction -0.065512 0.979301 0.191515   
     length 1.63798   
     axis 0 0 0   XYZ
    dof rx ry rz
    limits (-20.0 45.0)
           (-30.0 30.0)
           (-30.0 30.0)
  end
  begin
     id 15 
     name upperneck
     direction 0.0498479 0.98191 -0.182667   
     length 1.68731   
     axis 0 0 0   XYZ
    dof rx ry rz
    limits (-20.0 45.0)
           (-30.0 30.0)
           (-30.0 30.0)
  end
  begin
     id 16
     name head
     direction 0.0230358 0.996257 -0.0833175  
     length 1.69785  
     axis 0 0 0   XYZ
    dof rx ry rz
    limits (-20.0 45.0)
           (-30.0 30.0)
           (-30.0 30.0)
  end
  begin
     id 17 
     name lclavicle
     direction 0.967963 0.201165 -0.150269  
     length 3.63976  
     axis 0 0 0   XYZ
    dof ry rz
    limits (-20.0 10.0)
           (0.0 20.0)
  end
  begin
     id 18 
     name lhumerus
     direction 1 -4.48954e-011 -2.92837e-028   
     length 5.32462   
     axis 180 -30 -90   XYZ
    dof rx ry rz
    limits (-60.0 90.0)
           (-90.0 90.0)
           (-90.0 90.0)
  end
  begin
     id 19
     name lradius
     direction 1 -4.48958e-011 -6.39511e-027   
     length 3.48402   
     axis 180 -30 -90   XYZ
    dof rx
    limits (-10.0 170.0)
  end
  begin
     id 20
     name lwrist
     direction 1 -4.48975e-011 -1.1413e-026   
     length 1.74201   
     axis 6.88575e-015 90 90   XYZ
    dof ry
    limits (-180.0 0.0)
 end
  begin
     id 21 
     name lhand
     direction 1 -4.48899e-011 -2.28192e-026   
     length 0.572476   
     axis 1.45643e-014 90 90   XYZ
    dof rx rz
    limits (-90.0 90.0)
           (-45.0 45.0)
  end
  begin
     id 22 
     name lfingers
     direction 1 -4.49155e-011 -4.5684e-026   
     length 0.461545   
     axis 2.91283e-014 90 90   XYZ
    dof rx
    limits (0.0 90.0)
  end
  begin
     id 23
     name lthumb
     direction 0.707107 -6.34943e-011 0.707107   
     length 0.662688   
     axis -90 45 -2.25915e-014   XYZ
    dof rx rz
    limits (-45.0 45.0)
           (-45.0 45.0)
  end
  begin
     id 24 
     name rclavicle
     direction -0.964103 0.264019 -0.0282629   
     length 3.54491  
     axis 0 0 0   XYZ 
    dof ry rz
    limits (-10.0 20.0)
           (-20.0 0.0)
  end
  begin
     id 25 
     name rhumerus
     direction -1 -4.48964e-011 -2.45032e-027  
     length 5.33589   
     axis 180 30 90   XYZ
    dof rx ry rz
    limits (-90.0 60.0)
           (-90.0 90.0)
           (-90.0 90.0)
  end
  begin
     id 26 
     name rradius
     direction -1 -4.48987e-011 -1.55093e-027   
     length 3.64134   
     axis 180 30 90   XYZ
    dof rx
    limits (-10.0 170.0)
  end
  begin
     id 27 
     name rwrist
     direction -1 -4.4897e-011 -1.14128e-026   
     length 1.82067   
     axis 6.88575e-015 -90 -90   XYZ
    dof ry
    limits (-180.0 0.0)
  end
  begin
     id 28
     name rhand
     direction -1 -4.49021e-011 -2.28301e-026   
     length 0.734811   
     axis 1.45643e-014 -90 -90   XYZ
    dof rx rz
    limits (-90.0 90.0)
           (-45.0 45.0)
  end
  begin
     id 29
     name rfingers
     direction -1 -4.48862e-011 -4.56319e-026   
     length 0.592424   
     axis 2.91283e-014 -90 -90   XYZ
    dof rx
    limits (0.0 90.0)
  end
  begin
     id 30
     name rthumb
     direction -0.707107 -6.34978e-011 0.707107   
     length 0.850605   
     axis -90 -45 2.25915e-014   XYZ
    dof rx rz
    limits (-45.0 45.0)
           (-45.0 45.0)
  end
:hierarchy
  begin
    root lhipjoint rhipjoint lowerback
    lhipjoint lfemur
    lfemur ltibia
    ltibia lfoot
    lfoot ltoes
    rhipjoint rfemur
    rfemur rtibia
    rtibia rfoot
    rfoot rtoes
    lowerback upperback
    upperback thorax
    thorax lowerneck lclavicle rclavicle
    lowerneck upperneck
    upperneck head
    lclavicle lhumerus
    lhumerus lradius
    lradius lwrist
    lwrist lhand lthumb
    lhand lfingers
    rclavicle rhumerus
    rhumerus rradius
    rradius rwrist
    rwrist rhand rthumb
    rhand rfingers
  end

#!OML:ASF F:\VICON\USERDATA\INSTALL\rory3\rory3.ASF
:FULLY-SPECIFIED
:DEGREES
1
root -0.911983 17.127 -2.07041 6.56243 -1.55238 0.761094
lowerback 5.55461 -0.702902 -2.9888
upperback -0.385352 -1.07777 1.69595
thorax -3.42737 -0.466488 3.52525
lowerneck -22.7106 -3.58634 -11.1022
upperneck 22.124 -2.91011 6.71518
head 11.2107 -1.42007 3.84584
rclavicle -1.00883e-014 6.36111e-015
rhumerus -30.5425 -4.12926 -84.417
rradius 33.44
rwrist 19.5984
rhand -20.1339 -0.414545
rfingers 7.12502
rthumb 6.21054 -30.3035
lclavicle -1.00883e-014 6.36111e-015
lhumerus -30.599 7.10415 85.4053
lradius 30.7644
lwrist -3.90678
lhand -13.116 21.0654
lfingers 7.12502
lthumb 12.9814 50.6415
rfemur -21.3037 1.30024 16.6514
rtibia 48.3075
rfoot -28.0965 -3.0152
rtoes -3.79936
lfemur -19.7287 4.2046 -20.3015
ltibia 44.7797
lfoot -24.9439 4.17331
ltoes -20.0798
2
root -0.917823 17.0648 -2.09532 6.5376 -1.39692 0.655226
lowerback 5.92447 -0.706938 -2.87789
upperback -0.210134 -1.08418 1.68726
thorax -3.45535 -0.473669 3.45933
lowerneck -22.9466 -3.61531 -11.0832
upperneck 21.6901 -2.94062 6.81389
head 11.0965 -1.40802 3.86422
rclavicle -6.36111e-015 -5.96354e-015
rhumerus -30.1922 -4.50667 -84.3363
rradius 33.6483
rwrist 19.2002
rhand -20.7111 0.376062
rfingers 7.12502
rthumb 5.65328 -29.5285
lclavicle -6.36111e-015 -5.96354e-015
lhumerus -30.2765 7.10886 85.2231
lradius 31.2571
lwrist -2.56094
lhand -8.68573 27.0222
lfingers 7.12502
lthumb 17.2489 56.2766
rfemur -21.994 1.1948 16.8057
rtibia 49.6191
rfoot -28.3822 -3.06714
rtoes -4.36785
lfemur -20.7671 4.68885 -20.1162
ltibia 46.5436
lfoot -25.2712 3.6524
ltoes -20.3917
3
root -0.921682 17.0001 -2.11326 6.49429 -1.37742 0.520685
lowerback 6.21335 -0.675769 -2.6913
upperback -0.0365754 -1.03618 1.66282
thorax -3.44522 -0.455817 3.32784
lowerneck -23.1174 -3.63454 -10.9697
upperneck 21.3046 -2.9536 6.73735
head 10.9827 -1.40436 3.80517
rclavicle 7.70291e-015 3.18055e-015
rhumerus -29.8456 -5.09449 -84.1945
rradius 33.619
rwrist 18.5762
rhand -21.4912 1.27784
rfingers 7.12502
rthumb 4.9001 -28.6455
lclavicle 7.70291e-015 3.18055e-015
lhumerus -29.9198 7.1523 84.9646
lradius 31.4909
lwrist -1.51829
lhand -7.52978 29.1272
lfingers 7.12502
lthumb 18.3612 58.2806
rfemur -22.6227 1.25336 16.9599
rtibia 50.8808
rfoot -28.7279 -2.9928
rtoes -4.79304
lfemur -21.6932 5.28814 -19.9202
ltibia 48.2344
lfoot -25.616 3.1969
ltoes -21.1948
4
root -0.924151 16.935 -2.13032 6.2613 -1.40711 0.394093
lowerback 6.72525 -0.666528 -2.52211
upperback 0.136859 -1.02189 1.64815
thorax -3.55706 -0.451857 3.22378
lowerneck -23.2591 -3.61225 -10.8213
upperneck 20.9977 -2.90373 6.57014
head 10.8847 -1.38282 3.71903
rclavicle -6.65929e-015 -4.77083e-015
rhumerus -29.5362 -5.80894 -83.9658
rradius 33.5499
rwrist 17.9571
rhand -21.8213 1.94472
rfingers 7.12502
rthumb 4.58129 -27.9857
lclavicle -6.65929e-015 -4.77083e-015
lhumerus -29.653 7.5382 84.501
lradius 31.7005
lwrist -1.03906
lhand -7.39983 29.5452
lfingers 7.12502
lthumb 18.4862 58.6868
rfemur -23.0698 1.37626 17.1127
rtibia 52.1642
rfoot -29.0986 -3.00515
rtoes -5.43582
lfemur -22.3621 5.80993 -19.6995
ltibia 49.8527
lfoot -25.8725 2.79358
ltoes -21.5778
5
root -0.925849 16.8709 -2.14536 5.99594 -1.3122 0.321564
lowerback 7.18777 -0.724654 -2.38292
upperback 0.373479 -1.09806 1.61057
thorax -3.56866 -0.495025 3.11974
lowerneck -23.3377 -3.52323 -10.6472
upperneck 20.5334 -2.79653 6.49198
head 10.7125 -1.32031 3.66801
rclavicle 2.18663e-015 1.15295e-014
rhumerus -29.185 -6.64847 -83.7201
rradius 33.4384
rwrist 17.2636
rhand -21.9794 2.9348
rfingers 7.12502
rthumb 4.42869 -26.9989
lclavicle 2.18663e-015 1.15295e-014
lhumerus -29.2131 8.16306 83.8825
lradius 31.8893
lwrist -0.756209
lhand -6.89099 30.6214
lfingers 7.12502
lthumb 18.9757 59.7158
rfemur -23.4483 1.37448 17.2164
rtibia 53.4719
rfoot -29.4284 -3.15001
rtoes -6.9336
lfemur -22.9283 6.08048 -19.495
ltibia 51.4048
lfoot -26.0908 2.23697
ltoes -21.7139
6
root -0.930649 16.8009 -2.1637 5.89156 -1.15334 0.247915
lowerback 7.5405 -0.77944 -2.26008
upperback 0.542292 -1.16736 1.59453
thorax -3.58892 -0.533147 3.04594
lowerneck -23.3433 -3.46173 -10.6097
upperneck 20.0055 -2.71268 6.51719
head 10.5114 -1.26679 3.67286
rclavicle -4.47266e-015 -2.10712e-014
rhumerus -28.7506 -7.66049 -83.3599
rradius 33.1405
rwrist 16.566
rhand -22.4009 4.06311
rfingers 7.12502
rthumb 4.02163 -25.8787
lclavicle -4.47266e-015 -2.10712e-014
lhumerus -28.6913 8.76339 83.2426
lradius 31.8603
lwrist -0.465656
lhand -7.28883 30.8426
lfingers 7.12502
lthumb 18.593 59.9741
rfemur -23.9947 1.31384 17.3192
rtibia 54.785
rfoot -29.6277 -3.49307
rtoes -9.53169
lfemur -23.5969 6.28856 -19.2954
ltibia 52.8751
lfoot -26.1931 1.90315
ltoes -22.9746
7
root -0.94123 16.7272 -2.18118 5.87064 -1.08378 0.0828992
lowerback 7.85376 -0.758388 -2.13015
upperback 0.62397 -1.13246 1.61067
thorax -3.68407 -0.517028 2.99155
lowerneck -23.3188 -3.44747 -10.6383
upperneck 19.5334 -2.68848 6.58996
head 10.3342 -1.2414 3.69783
rclavicle 8.94531e-016 -7.15625e-015
rhumerus -28.3807 -9.1084 -82.8163
rradius 32.8861
rwrist 16.1836
rhand -22.0453 4.01459
rfingers 7.12502
rthumb 4.36501 -25.9204
lclavicle 8.94531e-016 -7.15625e-015
lhumerus -28.1496 9.29196 82.5426
lradius 31.5437
lwrist -0.0166914
lhand -8.64381 29.5592
lfingers 7.12502
lthumb 17.2893 58.8102
rfemur -24.6287 1.40027 17.5264
rtibia 56.0422
rfoot -29.8841 -3.68376
rtoes -11.0426
lfemur -24.3278 6.58468 -18.9657
ltibia 54.2628
lfoot -26.3889 1.4806
ltoes -23.9666
8
root -0.954692 16.6706 -2.19104 5.71885 -1.05022 -0.0920274
lowerback 8.22407 -0.725616 -2.06201
upperback 0.723546 -1.08676 1.64758
thorax -3.79142 -0.494473 2.99327
lowerneck -23.284 -3.41433 -10.6581
upperneck 19.1771 -2.63043 6.60051
head 10.1939 -1.20955 3.70631
rclavicle 1.68967e-014 -2.18663e-014
rhumerus -28.0433 -10.6668 -82.1521
rradius 32.6829
rwrist 16.0426
rhand -20.8854 2.61877
rfingers 7.12502
rthumb 5.48496 -27.2902
lclavicle 1.68967e-014 -2.18663e-014
lhumerus -27.6007 10.2107 81.6468
lradius 31.1437
lwrist 0.410756
lhand -9.20612 28.8303
lfingers 7.12502
lthumb 16.748 58.1279
rfemur -25.0416 1.58284 17.7548
rtibia 57.1841
rfoot -30.2146 -3.6319
rtoes -11.1635
lfemur -24.9536 6.90683 -18.5742
ltibia 55.5418
lfoot -26.6976 0.700843
ltoes -24.0938
9
root -0.965547 16.6248 -2.19674 5.57519 -0.92165 -0.215616
lowerback 8.51083 -0.756617 -1.99919
upperback 0.814309 -1.1255 1.66381
thorax -3.8557 -0.514498 2.9841
lowerneck -23.2141 -3.34782 -10.5841
upperneck 18.8841 -2.54192 6.51602
head 10.065 -1.16962 3.67072
rclavicle -5.01931e-015 1.66979e-014
rhumerus -27.7952 -12.1643 -81.4634
rradius 32.5118
rwrist 15.9689
rhand -19.683 0.755042
rfingers 7.12502
rthumb 6.64588 -29.1207
lclavicle -5.01931e-015 1.66979e-014
lhumerus -27.1676 11.7026 80.4408
lradius 30.7823
lwrist 0.640909
lhand -8.85933 28.8409
lfingers 7.12502
lthumb 17.0818 58.11
rfemur -25.3776 1.65949 17.9164
rtibia 58.2279
rfoot -30.5171 -3.47257
rtoes -11.085
lfemur -25.5498 7.06526 -18.2425
ltibia 56.7061
lfoot -27.041 -0.112043
ltoes -23.6618
10
root -0.973481 16.5707 -2.19766 5.52491 -0.789216 -0.142612
lowerback 8.61335 -0.793006 -2.1086
upperback 0.904133 -1.18688 1.63562
thorax -3.81389 -0.545095 3.02451
lowerneck -23.3141 -3.27928 -10.5327
upperneck 18.7035 -2.44102 6.48839
head 10.007 -1.11816 3.66424
rclavicle -3.72721e-015 1.55052e-014
rhumerus -27.6247 -13.3098 -80.7689
rradius 32.4872
rwrist 15.3171
rhand -18.8866 -0.61338
rfingers 7.12502
rthumb 7.41464 -30.4634
lclavicle -3.72721e-015 1.55052e-014
lhumerus -26.7044 13.4786 79.1118
lradius 30.4019
lwrist 0.738182
lhand -8.56469 29.2563
lfingers 7.12502
lthumb 17.3654 58.5006
rfemur -25.7911 1.56983 17.8202
rtibia 59.2448
rfoot -30.7777 -3.13259
rtoes -10.6995
lfemur -26.0669 7.15251 -18.1824
ltibia 57.7299
lfoot -27.4302 -0.80375
ltoes -23.2374
11
root -0.983828 16.5053 -2.19867 5.44388 -0.666432 -0.139921
lowerback 8.72718 -0.807013 -2.17359
upperback 0.998198 -1.21309 1.64344
thorax -3.77633 -0.558765 3.07358
lowerneck -23.3941 -3.23217 -10.605
upperneck 18.5082 -2.35754 6.58041
head 9.94533 -1.06948 3.71853
rclavicle 7.60351e-015 -1.33186e-014
rhumerus -27.4754 -14.446 -79.9367
rradius 32.4222
rwrist 14.6161
rhand -18.3505 -1.1299
rfingers 7.12502
rthumb 7.93208 -30.9611
lclavicle 7.60351e-015 -1.33186e-014
lhumerus -26.264 15.0027 77.8025
lradius 30.0767
lwrist 1.03301
lhand -8.85666 29.35
lfingers 7.12502
lthumb 17.0844 58.6188
rfemur -26.1969 1.42029 17.8356
rtibia 60.2753
rfoot -31.0465 -2.94746
rtoes -10.8765
lfemur -26.4563 7.35607 -18.0527
ltibia 58.6174
lfoot -27.8358 -1.33884
ltoes -23.3201
12
root -0.996582 16.4425 -2.20204 5.35636 -0.541301 -0.203787
lowerback 8.8649 -0.815542 -2.18556
upperback 1.05761 -1.22625 1.67836
thorax -3.78947 -0.565338 3.12067
lowerneck -23.3693 -3.2139 -10.687
upperneck 18.3407 -2.31184 6.62429
head 9.87837 -1.04663 3.75128
rclavicle -1.33683e-014 2.36554e-014
rhumerus -27.3326 -15.6472 -78.9142
rradius 32.1407
rwrist 14.2383
rhand -18.1166 -1.18188
rfingers 7.12502
rthumb 8.15784 -31.0044
lclavicle -1.33683e-014 2.36554e-014
lhumerus -25.9536 16.1897 76.4726
lradius 29.8713
lwrist 1.52198
lhand -9.19543 29.0739
lfingers 7.12502
lthumb 16.7583 58.3706
rfemur -26.6171 1.27715 17.9721
rtibia 61.2953
rfoot -31.3501 -3.05419
rtoes -11.5981
lfemur -26.7772 7.58359 -17.8633
ltibia 59.3446
lfoot -28.333 -1.74485
ltoes -23.2725
